<svg width="270" height="71" viewBox="0 0 270 71" fill="none" xmlns="http://www.w3.org/2000/svg">
<path d="M264.385 1.4249C264.068 0.659782 263.19 0.297008 262.425 0.614625L249.957 5.79049C249.191 6.10811 248.829 6.98584 249.146 7.75096C249.464 8.51608 250.342 8.87886 251.107 8.56124L262.19 3.96047L266.791 15.0435C267.108 15.8086 267.986 16.1714 268.751 15.8538C269.516 15.5361 269.879 14.6584 269.561 13.8933L264.385 1.4249ZM261.614 1.42705C255.777 15.5483 235.85 36.0536 194.645 50.4814C153.492 64.8909 91.2618 73.1746 1.16875 62.9742L0.831248 65.9552C91.2381 76.191 153.945 67.9107 195.636 53.3129C237.274 38.7335 258.098 17.7883 264.386 2.57295L261.614 1.42705Z" fill="#9747FF"/>
</svg>
