<svg width="270" height="71" viewBox="0 0 270 71" fill="none" xmlns="http://www.w3.org/2000/svg">
<path d="M5.61461 69.5751C5.93224 70.3402 6.80995 70.703 7.57509 70.3854L20.0435 65.2095C20.8086 64.8919 21.1714 64.0142 20.8537 63.249C20.5361 62.4839 19.6584 62.1211 18.8933 62.4388L7.81026 67.0395L3.20949 55.9565C2.89189 55.1914 2.01415 54.8286 1.24904 55.1462C0.483903 55.4639 0.12114 56.3416 0.438737 57.1067L5.61461 69.5751ZM8.38625 69.573C14.2227 55.4517 34.1496 34.9464 75.3552 20.5186C116.508 6.10909 178.738 -2.17456 268.831 8.02578L269.169 5.04483C178.762 -5.19104 116.055 3.08932 74.3638 17.6871C32.7255 32.2665 11.9024 53.2117 5.61372 68.427L8.38625 69.573Z" fill="#9747FF"/>
</svg>
