<svg width="421" height="149" viewBox="0 0 421 149" fill="none" xmlns="http://www.w3.org/2000/svg">
<path d="M6.67907 1.28923C7.07162 0.559712 7.98123 0.286542 8.71075 0.679088L20.599 7.076C21.3285 7.46855 21.6016 8.37816 21.2091 9.10768C20.8166 9.8372 19.9069 10.1104 19.1774 9.71783L8.61013 4.03168L2.92398 14.599C2.53143 15.3285 1.62182 15.6017 0.892298 15.2091C0.162775 14.8166 -0.110388 13.907 0.28216 13.1774L6.67907 1.28923ZM9.43661 1.56856C28.2075 64.0725 136.355 179.864 419.769 135.703L420.231 138.667C135.967 182.961 25.9264 66.907 6.56338 2.43144L9.43661 1.56856Z" fill="#9747FF"/>
</svg>
