<svg xmlns="http://www.w3.org/2000/svg" viewBox="0 0 24 24" width="24" height="24">
    <path fill="#4CAF50"
        d="M4.5 9.5c-.3-.3-.3-.8 0-1.1l7-7c.3-.3.8-.3 1.1 0l7 7c.3.3.3.8 0 1.1-.3.3-.8.3-1.1 0L13 4.12V15.5c0 .4-.2.7-.5.9-.2.1-.5.1-.7 0-.2-.1-.3-.3-.3-.5V4.12L5.6 9.4c-.3.3-.8.3-1.1 0z" />
    <path fill="#FFC107"
        d="M17 9.5c-.3-.3-.3-.8 0-1.1l1.5-1.5c.3-.3.8-.3 1.1 0 .3.3.3.8 0 1.1l-1.5 1.5c-.3.3-.8.3-1.1 0z" />
    <path fill="#FFC107"
        d="M19 14H5a1 1 0 0 0-1 1v3h16v-3a1 1 0 0 0-1-1zm-8 3h-2v-2h2v2zm5 0h-2v-2h2v2z" />
</svg>